inDegrees=yes
name=ik_S53_A08_T01
DataType=double
version=3
OpenSimVersion=4.3-2021-08-27-4bc7ad9
endheader
time	pelvis_tilt	pelvis_list	pelvis_rotation	pelvis_tx	pelvis_ty	pelvis_tz	hip_flexion_r	hip_adduction_r	hip_rotation_r	knee_angle_r	knee_angle_r_beta	ankle_angle_r	subtalar_angle_r	mtp_angle_r	hip_flexion_l	hip_adduction_l	hip_rotation_l	knee_angle_l	knee_angle_l_beta	ankle_angle_l	subtalar_angle_l	mtp_angle_l	lumbar_extension	lumbar_bending	lumbar_rotation	arm_flex_r	arm_add_r	arm_rot_r	elbow_flex_r	pro_sup_r	wrist_flex_r	wrist_dev_r	arm_flex_l	arm_add_l	arm_rot_l	elbow_flex_l	pro_sup_l	wrist_flex_l	wrist_dev_l
19.88333333333349	-2.989477066747685	-1.803139727610236	30.78730024849038	0	0.9399999999999999	0	32.74102572614652	-9.719953764682961	-9.127635551924694	36.59112601548821	0.638635625982423	0	0	0	32.74102572614652	-9.719953764682961	-9.127635551924694	36.59112601548821	0.638635625982423	0	0	0	-1.652806873173061	-0.5344694938504918	5.412847272805642	27.55360028525531	-8.967977161345685	-5.079880824579352	53.59878602529583	151.9482609259798	0	0	46.53709555248332	-28.61206196994288	13.23242476359114	94.15774328936165	75.16042904250837	0	0
19.90000000000015	-3.086185968439843	-1.855538068366849	30.87272472578493	0	0.9399999999999999	0	32.76444249527317	-9.721413752506535	-9.130884994145845	36.61660444531454	0.6390803084711306	0	0	0	32.76444249527317	-9.721413752506535	-9.130884994145845	36.61660444531454	0.6390803084711306	0	0	0	-1.764251220629663	-0.5309889366659812	5.441936727796165	27.75422764506364	-9.061200506724145	-5.175761551711597	53.59542106495164	151.9235697439405	0	0	46.77111362029009	-28.49659868550208	13.29068507852942	94.17357214510625	75.17131397357919	0	0
19.91666666666682	-3.136062479755214	-1.904065244418469	31.00400155606669	0	0.9399999999999999	0	32.77171767123856	-9.721976441507739	-9.132011849115932	36.62434920164645	0.6392154799688871	0	0	0	32.77171767123856	-9.721976441507739	-9.132011849115932	36.62434920164645	0.6392154799688871	0	0	0	-1.836301001292954	-0.5423526832399392	5.346888170386349	27.75857051517561	-9.069541886503034	-5.226015900696568	53.73620593673893	151.8185400775536	0	0	46.66513123984482	-27.48615685088843	13.06766552804968	91.55376808898761	75.43842883877713	0	0
19.93333333333348	-3.182038401856707	-1.948293311792003	31.13916010418483	0	0.9399999999999999	0	32.78005277436479	-9.722621205468464	-9.13330333089262	36.63321029277858	0.6393701351844621	0	0	0	32.78005277436479	-9.722621205468464	-9.13330333089262	36.63321029277858	0.6393701351844621	0	0	0	-1.902087389073362	-0.5529599502748634	5.276771070891662	27.72191148380372	-9.114336413845146	-5.312696417560778	53.89053535254705	151.8102115809992	0	0	46.66898317231758	-27.10425062186433	13.19649515484059	89.24353321468705	75.09626550158947	0	0
19.95000000000015	-3.267261119164887	-2.02452048225943	31.25912181196954	0	0.9399999999999999	0	32.78676842624947	-9.723138523668961	-9.134341302943001	36.64036867165986	0.6394950724650458	0	0	0	32.78676842624947	-9.723138523668961	-9.134341302943001	36.64036867165986	0.6394950724650458	0	0	0	-2.017358784691432	-0.5714333467408318	5.192537469349583	27.93821145680139	-9.116784710367327	-5.364669736308191	53.89037757750874	151.8088924549298	0	0	46.82770200556481	-26.12485482936244	13.1998293203349	86.47193934605882	75.53631966529623	0	0
19.96666666666681	-3.311993316214769	-2.055418121410061	31.35235201835219	0	0.9399999999999999	0	32.79372900980182	-9.723673661834045	-9.135416014311804	36.64779299158496	0.63962465129246	0	0	0	32.79372900980182	-9.723673661834045	-9.135416014311804	36.64779299158496	0.63962465129246	0	0	0	-2.076734296216868	-0.5705026368638023	5.103567971547595	27.89661415964815	-9.108910134756794	-5.351256655319024	54.06032152612207	151.7319036148977	0	0	47.03349918464468	-25.13829228032918	13.3280405088818	83.55203316961486	76.02304534383283	0	0
19.98333333333348	-3.307027869899901	-2.05820450619047	31.45272480834107	0	0.9399999999999999	0	32.79958603123087	-9.724121755770783	-9.136317650070222	36.65406155734894	0.6397340584044193	0	0	0	32.79958603123087	-9.724121755770783	-9.136317650070222	36.65406155734894	0.6397340584044193	0	0	0	-2.080261000422941	-0.5694430559506767	4.982397613525502	27.74705651298093	-9.07609504836276	-5.32153002096151	54.22269128999613	151.7321015842569	0	0	47.32197894965341	-24.1635685972979	13.4488568139446	80.47947448108513	76.48865407124183	0	0
20.00000000000015	-3.372889454856284	-2.088588901204667	31.48377770089309	0	0.9399999999999999	0	32.80589043470702	-9.724603938581454	-9.13728815066281	36.66080484110738	0.6398517509084003	0	0	0	32.80589043470702	-9.724603938581454	-9.13728815066281	36.66080484110738	0.6398517509084003	0	0	0	-2.156031953389425	-0.5563214170849438	4.909010858813668	27.75843862330471	-9.046899819582453	-5.211595609110158	54.40627790827912	151.5991346039099	0	0	47.88744218697349	-23.22620103623751	13.74046732296421	77.41381903694526	76.68814960317593	0	0
20.01666666666681	-3.39599724831151	-2.066220985756641	31.34995189262566	0	0.9399999999999999	0	32.81274497738016	-9.725126880911779	-9.138341849715495	36.66814538117229	0.6399798675014076	0	0	0	32.81274497738016	-9.725126880911779	-9.138341849715495	36.66814538117229	0.6399798675014076	0	0	0	-2.161243727071178	-0.5290428498363914	4.989506990409287	27.68820096092733	-9.055127382018137	-5.064606037163506	54.50573636619544	151.5109314595362	0	0	48.43405830434494	-22.51474542630424	14.21225718612694	75.41710394099209	76.74351705813089	0	0
20.03333333333348	-3.470417090339607	-2.087351445090379	31.2465537983839	0	0.9399999999999999	0	32.81853439886518	-9.725567971293401	-9.139231213976014	36.67434693207466	0.6400881049833841	0	0	0	32.81853439886518	-9.725567971293401	-9.139231213976014	36.67434693207466	0.6400881049833841	0	0	0	-2.237018844308438	-0.50549306658589	4.970165411365877	27.83920830944663	-9.047426399558198	-4.92701323847918	54.52623275326527	151.5081910087326	0	0	49.06150117958598	-21.63894576213778	14.64017346708753	72.19169575286543	76.95210857590801	0	0
20.05000000000014	-3.52604942625782	-2.106081943367644	31.0887702822002	0	0.9399999999999999	0	32.82558367781314	-9.72610206628918	-9.140310433032194	36.68192815022029	0.6402204222013372	0	0	0	32.82558367781314	-9.72610206628918	-9.140310433032194	36.68192815022029	0.6402204222013372	0	0	0	-2.289010210624345	-0.4965917723291252	5.107432658526573	27.87036596135546	-9.017422370673623	-4.86222852853259	54.62003623227881	151.4621089123528	0	0	49.90868358496558	-20.87070382494963	15.14897036050964	70.05621283414804	77.158540243891	0	0
20.06666666666681	-3.583806938362321	-2.108102272257177	31.19716384429821	0	0.9399999999999999	0	32.83244595258145	-9.72662468232671	-9.141364785360071	36.68926632632924	0.6403484975355296	0	0	0	32.83244595258145	-9.72662468232671	-9.141364785360071	36.68926632632924	0.6403484975355296	0	0	0	-2.348862446946496	-0.4530038432443172	4.877562832267963	27.94116991842821	-8.966035017018104	-4.820752879390228	54.72966982024266	151.3853636185764	0	0	50.5465289457855	-19.94374354576206	15.20977281395184	65.58842225449384	77.87067506075019	0	0
20.08333333333347	-3.636852292454294	-2.098839669717752	31.02222590435969	0	0.9399999999999999	0	32.83689435162762	-9.726964214658823	-9.142049358537857	36.69400992101145	0.6404312888811142	0	0	0	32.83689435162762	-9.726964214658823	-9.142049358537857	36.69400992101145	0.6404312888811142	0	0	0	-2.389366979587758	-0.4187147657905748	4.897389526984869	28.03630516461942	-8.985666255144716	-4.653274732988855	54.78772496191461	151.2557855280855	0	-6.993988844135308e-52	51.26766155093286	-19.51090915947128	15.49539108490373	64.75147998153366	77.88219648568263	0	-6.993988844135308e-52
20.10000000000014	-3.699923947748607	-2.10562162545397	30.96680308448174	0	0.9399999999999999	0	32.84043960136661	-9.727232838447089	-9.142592421113974	36.69781318135474	0.6404976682964152	0	0	0	32.84043960136661	-9.727232838447089	-9.142592421113974	36.69781318135474	0.6404976682964152	0	0	0	-2.450323931174799	-0.3862494335220137	4.807189108035926	28.12911358362958	-8.931334018800714	-4.644822885834141	54.85320150917853	151.3052022575555	0	0	51.25156987848604	-19.43290011480253	15.29489376895238	63.66155786371355	77.85975350420355	0	0
20.11666666666681	-3.791788818972889	-2.102067500218184	30.84887084491062	0	0.9399999999999999	0	32.84733745444681	-9.727757085390204	-9.143651321566523	36.70518648800789	0.6406263567742718	0	0	0	32.84733745444681	-9.727757085390204	-9.143651321566523	36.70518648800789	0.6406263567742718	0	0	0	-2.527314517620448	-0.3367745386403104	4.850498742328369	28.31011677806581	-9.010082891820455	-4.532091991144	54.84555119496269	151.2951404126049	0	0	51.80586623957397	-18.45403653488057	15.58611451919688	60.66476912377426	77.54686748761252	0	0
20.13333333333347	-3.82847512870682	-2.107551870795769	30.74778076487291	0	0.9399999999999999	0	32.85424501513366	-9.728281364910595	-9.144711013705454	36.71257151772923	0.6407552498582668	0	0	0	32.85424501513366	-9.728281364910595	-9.144711013705454	36.71257151772923	0.6407552498582668	0	0	0	-2.561065139049856	-0.3246634356515147	4.90926258078124	28.25993935461981	-8.933855004570431	-4.70804106615364	54.99913052235088	151.399954063132	0	0	52.24680689267684	-17.6212653540101	15.84862242046853	57.79997622235518	77.14584335602639	0	0
20.15000000000014	-3.821277602928022	-2.106893843649456	30.75843539955307	0	0.9399999999999999	0	32.86032464236909	-9.728740864376704	-9.145641333580096	36.71908961238604	0.6408690120709849	0	0	0	32.86032464236909	-9.728740864376704	-9.145641333580096	36.71908961238604	0.6408690120709849	0	0	0	-2.556958172457152	-0.3252819518296291	4.879898222852258	28.24620958315194	-8.93969125502487	-4.721520870828298	55.03820149502853	151.255108097029	0	0	52.61935408430169	-16.91216816385778	16.00921021241704	55.08035992844972	76.9490977276503	0	0
20.1666666666668	-3.895103054668139	-2.100855865348244	30.76139122638041	0	0.9399999999999999	0	32.86624377282357	-9.729189976645394	-9.146549564578034	36.72540751768381	0.64097928032026	0	0	0	32.86624377282357	-9.729189976645394	-9.146549564578034	36.72540751768381	0.64097928032026	0	0	0	-2.621927884058711	-0.2748769290352362	4.760267635446684	28.32660720595436	-8.932978533170097	-4.697071076451872	55.1096191711424	151.2032723239071	0	0	52.5650215922928	-16.66441710438861	15.74171808322346	53.24655519909482	76.84108987330572	0	0
20.18333333333347	-3.98764841473593	-2.10339354214893	30.63540264664423	0	0.9399999999999999	0	32.87197843117458	-9.729623063740584	-9.147426999502049	36.73154839039388	0.6410864587679967	0	0	0	32.87197843117458	-9.729623063740584	-9.147426999502049	36.73154839039388	0.6410864587679967	0	0	0	-2.702896141588905	-0.2293713637370274	4.768711368676686	28.44357252988548	-8.899760276515334	-4.61717104102544	55.15316336079112	151.3106924528308	0	0	53.08840861593134	-16.064117901409	16.01344086626691	50.87579046749326	76.70946256606113	0	0
20.20000000000013	-4.109858877385844	-2.114050729369805	30.46182001456063	0	0.9399999999999999	0	32.87847080164079	-9.730115489744787	-9.148423357003113	36.73846692748256	0.6412072100196154	0	0	0	32.87847080164079	-9.730115489744787	-9.148423357003113	36.73846692748256	0.6412072100196154	0	0	0	-2.812539595406033	-0.180084364963213	4.811508480920488	28.62790380272054	-8.90671897687009	-4.563140286882366	55.21603621513145	151.2613533535296	0	0	53.72491039777682	-15.68481672782872	16.51126046097115	49.54906065562699	76.27431403265281	0	0
20.2166666666668	-4.132401274075993	-2.115341143733076	30.34047719094503	0	0.9399999999999999	0	32.88583368452546	-9.730670097067707	-9.1495484883276	36.74635399050275	0.6413448652376301	0	0	0	32.88583368452546	-9.730670097067707	-9.1495484883276	36.74635399050275	0.6413448652376301	0	0	0	-2.831057069953935	-0.1734599545702331	4.891381179361101	28.61420553612709	-8.860505343985528	-4.61021250720353	55.27539241990337	151.2390695780839	0	0	54.2851440497594	-14.98630287892258	16.81170666440309	47.1926060970818	75.96016327072783	0	0
20.23333333333347	-4.213783112577892	-2.163561353134709	30.21283172291627	0	0.9399999999999999	0	32.8919326320333	-9.731127700483887	-9.150478308222205	36.75290328776441	0.641459172038538	0	0	0	32.8919326320333	-9.731127700483887	-9.150478308222205	36.75290328776441	0.641459172038538	0	0	0	-2.924677639715541	-0.1768696139216844	4.954133870221149	28.72575125603353	-8.81212953113606	-4.648967233524798	55.37076168729094	151.2099026051636	0	0	55.01935562501689	-14.32002671539745	17.00380773953695	44.94607426134842	75.66509034202153	0	0
